# xmcd
#
# Track frame offsets: 
#        215
#        17065
#        31627
#        50307
#        75927
#        101347
#        116665
#        149020
#        171365
#        189960
#        218757
#        243745
#        260402
#
# Disc length: 3703 seconds
#
# Revision: 3
# Processed by: cddbd v1.5.2PL0 Copyright (c) Steve Scherf et al.
# Submitted via: ExactAudioCopy v0.99pb4
#
DISCID=a70e750d
DTITLE=Skeeter Brandon and Hwy 61 - Hi-Test Blues
DYEAR=1993
DGENRE=Blues
TTITLE0=Boogie Down
TTITLE1=Chickadee
TTITLE2=Goin' Back To North Carolina
TTITLE3=True Love
TTITLE4=Where Would I Be
TTITLE5=On The Wrong Track
TTITLE6=Cold, Cold World
TTITLE7=Blues For The Soul
TTITLE8=Bad Situation
TTITLE9=The Truth
TTITLE10=I Got A New Woman
TTITLE11=Real Upsetter
TTITLE12=Living Shall Not Be In Vain
EXTD=
EXTT0=
EXTT1=
EXTT2=
EXTT3=
EXTT4=
EXTT5=
EXTT6=
EXTT7=
EXTT8=
EXTT9=
EXTT10=
EXTT11=
EXTT12=
PLAYORDER=
